# xmcd CD database file
# Copyright (C) 1997 Ti Kan
# 
# Track frame offsets:
#     150
#     1510
#     19152
#     33760
#     48492
#     66430
#     80057
#     91040
#     109335
#     124320
#     134277
#     146107
#     159357
#     176265
# 
# Disc length: 2367 seconds
# 
# Revision: 1
# Processed by: cddbd v1.4b41PL1 Copyright (c) Steve Scherf et al.
# Submitted via: DiscPlay 4.0.4
# 
DISCID=b1093d0e
DTITLE=Sid Spencer - Chasin' That Neon Rainbow
DYEAR=1900
DGENRE=
TTITLE0=Sid Spencer Sr. Commentary
TTITLE1=Sid Spencer Jr. Commentary
TTITLE2=The Dance
TTITLE3=He'll Use His Wings
TTITLE4=A Bible and a Bus Ticket Home
TTITLE5=Let's Fall To Pieces Together
TTITLE6=Dancin' Thru Texas
TTITLE7=Wind Beneath My Wings
TTITLE8=Daddy's Shoes
TTITLE9=Trying to Get to You
TTITLE10=It Ain't Over (Till Miss Lulu Roman Sings)
TTITLE11=I Owe You
TTITLE12=Bring Him Home
TTITLE13=Sid Spencer Jr. Acappella
EXTD=
EXTT0=
EXTT1=and Acappella of last recorded voice
EXTT2=
EXTT3=
EXTT4=
EXTT5=
EXTT6=
EXTT7=
EXTT8=
EXTT9=
EXTT10=
EXTT11=
EXTT12=
EXTT13=
PLAYORDER=
